<svg id="Layer_1" data-name="Layer 1" xmlns="http://www.w3.org/2000/svg" viewBox="0 0 178.82 78.13"><defs><style>.cls-1{fill:#9b9b30;}.cls-2{fill:#435363;}</style></defs><title>tate-dentistry_logo</title><path class="cls-1" d="M36.77,33.7a1.12,1.12,0,0,0,1.37,1.12v0.72H28.53V34.82a1.2,1.2,0,0,0,.78-0.28,1,1,0,0,0,.34-0.84V8.47H19a2.13,2.13,0,0,0-1.09.31A1.26,1.26,0,0,0,17.34,10H16.62V1.24h0.72a1.26,1.26,0,0,0,.53,1.19A2.12,2.12,0,0,0,19,2.73H47.46a2.12,2.12,0,0,0,1.09-.31,1.26,1.26,0,0,0,.53-1.19H49.8V10H49.08a1.26,1.26,0,0,0-.53-1.19,2.13,2.13,0,0,0-1.09-.31H36.77V33.7Z" transform="translate(-0.75 -1.14)"/><path class="cls-1" d="M65.39,11.12l-10,21A5.23,5.23,0,0,0,54.79,34q0,0.69,1.19.69v0.72H47.11V34.72a1.82,1.82,0,0,0,1.28-.81,13.4,13.4,0,0,0,.9-1.56L60.84,7.69c0.29-.54.67-1.44,0.9-1.89A2.43,2.43,0,0,0,62,4.61a0.92,0.92,0,0,0-.44-0.87,3.73,3.73,0,0,0-.94-0.37V2.64H71.13V3.36a5.09,5.09,0,0,0-.87.34,0.91,0.91,0,0,0-.44.9,2.46,2.46,0,0,0,.22,1q0.22,0.5.66,1.31l13,26.19a2.12,2.12,0,0,0,.84,1,12.76,12.76,0,0,0,1.22.62v0.72h-11V34.72a1.47,1.47,0,0,0,.62-0.19A0.6,0.6,0,0,0,75.75,34a3.89,3.89,0,0,0-.5-1.62Z" transform="translate(-0.75 -1.14)"/><path class="cls-1" d="M102.91,33.6a1.12,1.12,0,0,0,1.37,1.12v0.72H94.67V34.72a1.2,1.2,0,0,0,.78-0.28,1,1,0,0,0,.34-0.84V8.37H85.1A2.13,2.13,0,0,0,84,8.69a1.26,1.26,0,0,0-.53,1.19H82.76V1.14h0.72A1.26,1.26,0,0,0,84,2.32a2.12,2.12,0,0,0,1.09.31H113.6a2.12,2.12,0,0,0,1.09-.31,1.26,1.26,0,0,0,.53-1.19h0.73V9.87h-0.73a1.26,1.26,0,0,0-.53-1.19,2.13,2.13,0,0,0-1.09-.31H102.91V33.6Z" transform="translate(-0.75 -1.14)"/><path class="cls-1" d="M149.63,9.37a1.15,1.15,0,0,0-.53-1A3.59,3.59,0,0,0,147.26,8H126.65v7.74h12.63a4.41,4.41,0,0,0,1.93-.34,1.82,1.82,0,0,0,.69-1.78h0.72v9.73h-0.72a2,2,0,0,0-.69-1.84,3.83,3.83,0,0,0-1.93-.41H126.65v8.61h21.23a2.51,2.51,0,0,0,1.53-.44,1.39,1.39,0,0,0,.59-1.19h0.72v8.55H150a0.9,0.9,0,0,0-.59-1.06,7.61,7.61,0,0,0-1.53-.12H118.42V34.72a1.2,1.2,0,0,0,.78-0.28,1,1,0,0,0,.34-0.84V4.88A1,1,0,0,0,119.2,4a1.2,1.2,0,0,0-.78-0.28V2.64h28.84a3.12,3.12,0,0,0,1.84-.41,1.3,1.3,0,0,0,.53-1.09h0.72V9.37h-0.72Z" transform="translate(-0.75 -1.14)"/><path class="cls-1" d="M65.39,11.12l-10,21A5.23,5.23,0,0,0,54.79,34q0,0.69,1.19.69v0.72H47.11V34.72a1.82,1.82,0,0,0,1.28-.81,13.4,13.4,0,0,0,.9-1.56L60.84,7.69c0.29-.54.67-1.44,0.9-1.89A2.43,2.43,0,0,0,62,4.61a0.92,0.92,0,0,0-.44-0.87,3.73,3.73,0,0,0-.94-0.37V2.64H71.13V3.36a5.09,5.09,0,0,0-.87.34,0.91,0.91,0,0,0-.44.9,2.46,2.46,0,0,0,.22,1q0.22,0.5.66,1.31l13,26.19a2.12,2.12,0,0,0,.84,1,12.76,12.76,0,0,0,1.22.62v0.72h-11V34.72a1.47,1.47,0,0,0,.62-0.19A0.6,0.6,0,0,0,75.75,34a3.89,3.89,0,0,0-.5-1.62Z" transform="translate(-0.75 -1.14)"/><path class="cls-2" d="M43.83,25a2,2,0,0,1-.44-1.32,1.14,1.14,0,0,0-1.25-.73c-0.47,0-.42.76,0,1.23a6.69,6.69,0,0,0,3.47,2.1c1.72,0.3,5.86,1.3,17.84-2.92s15.81-3.63,17.37-2.1c0.13,0.22,1,.25.68,0-1.63-1.47-4.31-2.68-9.74-1.87C63,20.62,52.4,25.91,46.55,25.64A5.22,5.22,0,0,1,43.83,25Z" transform="translate(-0.75 -1.14)"/><path class="cls-2" d="M53,26c0.95,0.79,2,1.83,7.33,1.36C67.78,26.68,78.23,20.78,84,22c2.55,0.59,4.93,1.54,4.88,3.48,0,1-3.18.93-2.13,2.62,0.35,0.84,2.37.54,3.1-.53s0.84-5.11-6-6.18a24.77,24.77,0,0,0-10.21.46c-3.91,1-13.93,4.66-16.1,4.78-1.53.08-3.15,0-3.88-1C53.1,25.14,52.63,25.66,53,26Z" transform="translate(-0.75 -1.14)"/><path class="cls-1" d="M65.39,11.12l-10,21A5.23,5.23,0,0,0,54.79,34q0,0.69,1.19.69v0.72H47.11V34.72a1.82,1.82,0,0,0,1.28-.81,13.4,13.4,0,0,0,.9-1.56L60.84,7.69Z" transform="translate(-0.75 -1.14)"/><path class="cls-2" d="M27.49,39.5c1.24,0,2,.31,2,0.81s-0.77.77-1.66,0.77a16.9,16.9,0,0,1-3.75-.62,6.62,6.62,0,0,1,3.36-1h0ZM13,39.19a34.66,34.66,0,0,1,6.49.89c1.35,0.31,2.44.58,3.32,0.77a32.28,32.28,0,0,0-5.6,4.79c-0.81.93-1.43,1.66-2,2.4-0.62,0-1.66,0-2.09,0-0.93,0-1.28.19-1.31,0.35s0.23,0,1,0c0.46,0,1.2,0,2,0a27.38,27.38,0,0,1-2.28,2.86A10.82,10.82,0,0,1,4.84,55c-1.2,0-2.59-.39-2.63-1.24a1.32,1.32,0,0,1,.5-0.89,1.58,1.58,0,0,0,.58-1,0.93,0.93,0,0,0-1-1.06,1.77,1.77,0,0,0-1.54,1.8c0.08,2,2,2.71,4.17,2.71,4.41,0,8.31-2.4,11.52-5.88,0.31-.39.62-0.73,0.89-1a14.64,14.64,0,0,0,3.29-.27v0a4.86,4.86,0,0,0-.66,1,0.8,0.8,0,0,0-.15.77,2.28,2.28,0,0,0,.39-0.42A15.25,15.25,0,0,1,22,47.84c0.89-.81,1.39-1.28.77-1.43s-1.43.89-1.78,1.31a11.52,11.52,0,0,1-3.29.31c1.08-1.35,1.86-2.47,3.05-3.94A20.6,20.6,0,0,1,23.79,41a26.09,26.09,0,0,0,4.29.39c1.27,0,2.13-.43,2.2-1.08,0.12-.81-1-1.2-2.4-1.2a9.83,9.83,0,0,0-4.25,1.08c-1.31-.35-2.67-0.73-3.94-1.08A28.78,28.78,0,0,0,13.12,38c-4.83,0-8,2.2-8.39,5.06a4.4,4.4,0,0,0,3,4.87,0.7,0.7,0,0,0,.73,0c0-.12-0.12-0.08-0.5-0.23a3.79,3.79,0,0,1-2.55-4.41c0.7-2.9,3.87-4.14,7.5-4.14h0Z" transform="translate(-0.75 -1.14)"/><path class="cls-2" d="M162.28,49.08c0-.7-1.12-0.74-2.2-0.77-0.5,0-.62-0.27-0.12-0.85a4.41,4.41,0,0,1,.66-0.54,0.73,0.73,0,0,0-.7-0.39,1.89,1.89,0,0,0-1.47.66,0.8,0.8,0,0,0,0,1.24c-0.27.23-.89,0.85-1.39,1.35-0.66.66-1.2,1.16-1.7,1.62a0.5,0.5,0,0,0-.27.42c0.08,0.08.23,0,.5-0.19,0.43-.39,1.08-1,1.7-1.58s1.16-1.12,1.47-1.47a1.85,1.85,0,0,0,.89.08c1,0,1.7-.12,1.55.31-0.11.27-1.59,1.32-2.51,2.2s-1.82,1.89-1.86,2.74a1,1,0,0,0,1.2,1,6.42,6.42,0,0,0,3.44-1.55,24.61,24.61,0,0,0,2.32-2,0.66,0.66,0,0,0,.31-0.54,0.54,0.54,0,0,0-.46.27c-0.5.46-1,.93-1.89,1.59A12.3,12.3,0,0,1,160,53.84a1.06,1.06,0,0,1-.85.15,0.63,0.63,0,0,1,0-.74,11.66,11.66,0,0,1,1.31-1.82c0.89-1,1.78-1.82,1.78-2.32v0Zm-11.36,1c-1.12,1.47-2,2.86-2.09,3.83A1,1,0,0,0,150,55a6.22,6.22,0,0,0,3.56-1.58,22.93,22.93,0,0,0,2.32-2,0.67,0.67,0,0,0,.31-0.5c-0.12-.12-0.31.08-0.5,0.23-0.43.39-1.16,1-1.86,1.59a12.16,12.16,0,0,1-1.74,1.16,1.06,1.06,0,0,1-.93.15,0.86,0.86,0,0,1,0-1.12,28.93,28.93,0,0,1,2.78-4.25c0.89,0,1.51,0,2.36,0a0.65,0.65,0,0,0,.7-0.19c0.08-.15-0.27-0.23-0.54-0.23-0.62,0-1.31,0-2.2,0,0.77-1,1.47-1.86,2.36-2.86s1.89-2.09,2.36-2.51a0.54,0.54,0,0,0-.58-0.23c-0.81,0-1.74.89-2.44,1.58a52.13,52.13,0,0,0-3.63,4,9.57,9.57,0,0,1-1.08,0,1.41,1.41,0,0,0-1,.23c0,0.19.15,0.23,0.42,0.19,0.62,0,.89,0,1.39,0-0.73.66-2,1.86-3.09,2.78a0.55,0.55,0,0,0-.27.46,0.47,0.47,0,0,0,.46-0.19c0.39-.35,1.24-1.12,1.82-1.66v0ZM145,53.87a4.23,4.23,0,0,0,1.24-1.59,6.89,6.89,0,0,0,.35-3.17,1.24,1.24,0,0,1,.27-1,8,8,0,0,1,.93-0.58c0.5-.31,1.08-0.81.19-0.81a1.78,1.78,0,0,0-1.12.43,2.38,2.38,0,0,0-.62.66c-0.89.77-1.59,1.35-2.28,1.86s-1.24.85-1.62,1.08a0.36,0.36,0,0,0-.19.35c0.08,0.08.19,0,.39-0.08A9.34,9.34,0,0,0,144,50c0.66-.5,1.47-1.08,1.86-1.47v0c-0.42.5-1.12,2.82-1.82,3.94-0.85,1.47-1.82,2.09-2.59,2.09a0.94,0.94,0,0,1-1.12-1,1.75,1.75,0,0,1,.89-1.16,1.63,1.63,0,0,0,.85-1,0.65,0.65,0,0,0-.66-0.81,2.22,2.22,0,0,0-2,2c-0.15,1.08.27,2.32,2.32,2.32a9.23,9.23,0,0,0,3.25-.7A13.87,13.87,0,0,0,147.36,53a21.27,21.27,0,0,0,2.09-1.66,0.8,0.8,0,0,0,.31-0.5c-0.12-.12-0.35.08-0.5,0.23A20.79,20.79,0,0,1,146.7,53a13,13,0,0,1-1.7.93v0Zm-7.69-4.72a20.46,20.46,0,0,0-2.9,3.32,2.81,2.81,0,0,0-.58,1.47A1,1,0,0,0,135,55a6.09,6.09,0,0,0,3.36-1.58,26.35,26.35,0,0,0,2.32-2c0.12-.12.43-0.39,0.31-0.5a0.64,0.64,0,0,0-.54.23c-0.43.43-1,.93-1.86,1.59a8.75,8.75,0,0,1-1.7,1.2A0.85,0.85,0,0,1,136,54a0.72,0.72,0,0,1,.12-0.85,19.56,19.56,0,0,1,1.39-1.89c0.77-.93,1.35-1.7,2-2.47,0.5-.5.39-0.66-0.43-0.62a3.48,3.48,0,0,0-2.24.85c-0.93.62-2.67,2.13-3,2.4-0.16.19-.31,0.39-0.19,0.46a0.39,0.39,0,0,0,.39-0.16c0.66-.62,1.16-1,1.7-1.47a17.23,17.23,0,0,1,1.55-1.12v0Zm5.37-6.22a1.48,1.48,0,0,0-1.55.73,1.51,1.51,0,0,0,0,1.32,3,3,0,0,0,1.82-1c0.46-.58.23-1-0.27-1h0ZM129.42,50c-1.12,1.47-2,2.86-2.09,3.83A1,1,0,0,0,128.49,55,6.21,6.21,0,0,0,132,53.37a23,23,0,0,0,2.32-2,0.67,0.67,0,0,0,.31-0.5c-0.12-.12-0.31.08-0.5,0.23-0.42.39-1.16,1-1.86,1.59a12.17,12.17,0,0,1-1.74,1.16,1.06,1.06,0,0,1-.93.15,0.86,0.86,0,0,1,0-1.12,29.06,29.06,0,0,1,2.78-4.25c0.89,0,1.51,0,2.36,0a0.65,0.65,0,0,0,.7-0.19c0.08-.15-0.27-0.23-0.54-0.23-0.62,0-1.31,0-2.2,0,0.77-1,1.47-1.86,2.36-2.86s1.9-2.09,2.36-2.51a0.54,0.54,0,0,0-.58-0.23c-0.81,0-1.74.89-2.44,1.58a52.6,52.6,0,0,0-3.63,4,9.52,9.52,0,0,1-1.08,0,1.41,1.41,0,0,0-1,.23c0,0.19.15,0.23,0.42,0.19,0.62,0,.89,0,1.39,0-0.73.66-2,1.86-3.09,2.78a0.55,0.55,0,0,0-.27.46,0.47,0.47,0,0,0,.46-0.19c0.39-.35,1.24-1.12,1.82-1.66v0Zm-7.31,4.87a6.42,6.42,0,0,0,3.44-1.55,29.51,29.51,0,0,0,2.36-2,0.91,0.91,0,0,0,.35-0.5c-0.12-.12-0.31,0-0.5.19-0.46.43-1.28,1.16-1.89,1.62a10.27,10.27,0,0,1-1.86,1.2,1,1,0,0,1-.93.12c-0.16-.12-0.16-0.39.15-0.85a14.76,14.76,0,0,1,1.28-1.66,6.51,6.51,0,0,0,1.55-2.36c0.11-.66-0.39-1-1.2-1-1.16,0-2.86,1.08-4.21,2.09s-2.4,1.93-3.32,2.71l-0.12,0c0.43-.62,1.08-1.47,1.66-2.24a3.56,3.56,0,0,0,.81-1.62,0.87,0.87,0,0,0-1-.89A5,5,0,0,0,116,49.39a28.5,28.5,0,0,0-2.2,2,0.55,0.55,0,0,0-.27.46,0.58,0.58,0,0,0,.5-0.23c0.58-.54,1.2-1.08,1.78-1.58a8.19,8.19,0,0,1,1.51-1c0.19-.12.5-0.19,0.58,0a0.6,0.6,0,0,1-.23.66c-0.66.81-1,1.2-1.59,2a17.2,17.2,0,0,0-1.7,2.59c-0.31.54,0,.62,0.5,0.62a1.39,1.39,0,0,0,1-.35c1.7-1.31,2.63-2.2,4.33-3.52a19.06,19.06,0,0,1,3-2,1.72,1.72,0,0,1,1-.23c0.19,0.12.12,0.35,0,.54-0.5.54-1,1.2-1.62,1.89A6.49,6.49,0,0,0,121,53.91a1,1,0,0,0,1.12,1h0Zm-14.38-2.67a15.63,15.63,0,0,1,2.09-2.63,3.72,3.72,0,0,1,1.7-1c0.35,0,.54.15,0.46,0.5a3.33,3.33,0,0,1-1.58,2,10.77,10.77,0,0,1-2.67,1.2v0Zm4.44-4.17a8.35,8.35,0,0,0-3.44,1.12c-0.69.39-1.47,0.93-1.85,1.16a15.13,15.13,0,0,0-1.28,1,0.55,0.55,0,0,0-.27.46,0.62,0.62,0,0,0,.5-0.23l0.31-.31h0a4.33,4.33,0,0,0-.93,2.13c0,1,.7,1.59,2.13,1.59a8.59,8.59,0,0,0,4.52-1.66,21.71,21.71,0,0,0,2.44-2,0.67,0.67,0,0,0,.31-0.54c-0.12-.12-0.35.08-0.5,0.23a17.17,17.17,0,0,1-2.47,2,6.87,6.87,0,0,1-3.52,1.39,0.83,0.83,0,0,1-.89-0.89,2.56,2.56,0,0,1,.23-0.85,20.6,20.6,0,0,0,3.36-1.24c1.16-.58,2.4-1.35,2.47-2.36a1,1,0,0,0-1.12-1h0ZM90.76,54.26a17.33,17.33,0,0,0,9-6.22c1.7-2.16,3.4-5,4.75-6.26,1.51,1.93,1.16,5.18-.66,7.73A11.73,11.73,0,0,1,94,54.61a31.21,31.21,0,0,1-3.25-.31v0Zm4.1-10.09A6,6,0,0,1,92.65,48a7.5,7.5,0,0,1-5.45,2,2.85,2.85,0,0,1-2.9-3.09c0.08-4.37,5.64-8.16,11.75-8.16,2.82,0,6.26.85,8,2.63a36.92,36.92,0,0,0-6.38,6.07c-2.36,2.78-4.29,5.84-7.5,6.76A43.48,43.48,0,0,0,85,53.6c-3.13-.12-5.53,0-5.6.73S82,55,85.5,55c1.08,0,2.74-.12,3.83-0.23,1,0.12,3.29.19,5.3,0.19,3.9,0,8.66-1.47,10.82-4.68a7.21,7.21,0,0,0-.43-8.93A10.45,10.45,0,0,1,107.34,40a9.4,9.4,0,0,1,3.6-.81,4,4,0,0,1,2,.43,1.63,1.63,0,0,0,.54.39,0.63,0.63,0,0,0-.35-0.58,3.83,3.83,0,0,0-2.16-.58,11.49,11.49,0,0,0-3.79.77A15.9,15.9,0,0,0,104.63,41c-2-1.78-5.37-2.59-8.58-2.59-6.57,0-13.3,3.56-13.38,8.2,0,2.4,1.66,3.63,4.48,3.79a8.73,8.73,0,0,0,6-2,5.8,5.8,0,0,0,2.32-4.18A2.12,2.12,0,0,0,93.27,42a3.69,3.69,0,0,0-2.86,1.24,1.14,1.14,0,0,0-.46.89,2.75,2.75,0,0,0,.7-0.77,3.58,3.58,0,0,1,2.51-1,1.66,1.66,0,0,1,1.7,1.78v0Zm-41.32,5a20.38,20.38,0,0,0-2.9,3.32A2.8,2.8,0,0,0,50.05,54a1,1,0,0,0,1.16,1,6.09,6.09,0,0,0,3.36-1.58,26.33,26.33,0,0,0,2.32-2c0.12-.12.43-0.39,0.31-0.5a0.64,0.64,0,0,0-.54.23c-0.42.43-1,.93-1.86,1.59a8.75,8.75,0,0,1-1.7,1.2,0.85,0.85,0,0,1-.93.12,0.73,0.73,0,0,1,.12-0.85,19.39,19.39,0,0,1,1.39-1.89c0.77-.93,1.35-1.7,2-2.47,0.5-.5.39-0.66-0.42-0.62a3.48,3.48,0,0,0-2.24.85c-0.93.62-2.67,2.13-3,2.4-0.15.19-.31,0.39-0.19,0.46a0.39,0.39,0,0,0,.39-0.16c0.66-.62,1.16-1,1.7-1.47a17.14,17.14,0,0,1,1.55-1.12v0Zm5.37-6.22a1.48,1.48,0,0,0-1.55.73,1.51,1.51,0,0,0,0,1.32,3,3,0,0,0,1.82-1c0.46-.58.23-1-0.27-1h0Zm-14.11,12a6.17,6.17,0,0,0,3.44-1.55,19.56,19.56,0,0,0,2.36-2c0.12-.12.43-0.39,0.31-0.5s-0.31.12-.5,0.23c-0.46.43-1.28,1.12-1.86,1.59a11.85,11.85,0,0,1-1.82,1.2,1.13,1.13,0,0,1-1,.12c-0.16-.12-0.16-0.39.15-0.85a14.77,14.77,0,0,1,1.28-1.66,6.49,6.49,0,0,0,1.55-2.36c0.12-.66-0.35-1-1.2-1-1.12,0-2.86,1.08-4.21,2.09S40.93,52.1,40,52.87l-0.12,0c0.35-.46.58-0.7,1.16-1.43a7.2,7.2,0,0,0,1.51-2.2c0.12-.66-0.27-1.12-1.24-1.12-1.12,0-2.82,1.08-4.18,2.09s-2.4,1.93-3.32,2.71l-0.12,0c0.42-.62,1.08-1.47,1.66-2.24A3.56,3.56,0,0,0,36.18,49a0.87,0.87,0,0,0-1-.89,4.83,4.83,0,0,0-2.71,1.31c-0.77.66-1.66,1.47-2.2,2a0.54,0.54,0,0,0-.27.46,0.62,0.62,0,0,0,.5-0.23c0.58-.54,1.2-1.08,1.78-1.58a8.17,8.17,0,0,1,1.51-1c0.19-.12.5-0.19,0.58,0a0.6,0.6,0,0,1-.23.66c-0.66.81-1,1.2-1.59,2a17.22,17.22,0,0,0-1.7,2.59c-0.31.54,0,.62,0.5,0.62a1.39,1.39,0,0,0,1-.35c1.7-1.31,2.63-2.2,4.33-3.52a18.31,18.31,0,0,1,3-2,2,2,0,0,1,1-.23,0.36,0.36,0,0,1,0,.54c-0.54.73-1,1.12-1.66,1.89a21.4,21.4,0,0,0-2,3c-0.23.5-.12,0.62,0.5,0.62a1.39,1.39,0,0,0,1-.35c1.7-1.31,2.63-2.2,4.33-3.52a19,19,0,0,1,3-2,1.72,1.72,0,0,1,1-.23c0.19,0.12.12,0.35,0,.54-0.46.54-1,1.2-1.62,1.89a6.49,6.49,0,0,0-1.62,2.71,1,1,0,0,0,1.12,1h0ZM26.09,48.46a0.6,0.6,0,0,1,.7.7c0,0.62-1.43,2.28-2.67,3.36a6.65,6.65,0,0,1-3.25,1.82,0.44,0.44,0,0,1-.5-0.39c0-.5.7-1.62,2.16-3.05s2.78-2.44,3.52-2.44h0Zm1,1.08a1,1,0,0,0-.81-1.47,7.21,7.21,0,0,0-3.87,1.08,20,20,0,0,0-1.93,1.2,15,15,0,0,0-1.28,1,0.55,0.55,0,0,0-.27.46,0.62,0.62,0,0,0,.5-0.23l0.35-.35h0a4.31,4.31,0,0,0-1.08,2.09,1.31,1.31,0,0,0,1.59,1.55c1.47-.08,3.25-1.31,4.25-2.2h0A2.12,2.12,0,0,0,24,54.11a1,1,0,0,0,1.12.81,5.94,5.94,0,0,0,3.32-1.55,26.48,26.48,0,0,0,2.32-2,0.67,0.67,0,0,0,.31-0.54c-0.12-.12-0.31.12-0.5,0.27-0.43.39-1,.93-1.86,1.59A10.15,10.15,0,0,1,27,53.87a1,1,0,0,1-.89.15c-0.15-.12-0.19-0.43.12-0.89a11.12,11.12,0,0,1,1.35-1.89c0.81-1,1.66-2,2.16-2.55s0.31-.66-0.5-0.62c-0.62,0-1.28.5-2.16,1.47h0Z" transform="translate(-0.75 -1.14)"/><path class="cls-2" d="M56.5,51.3c0.28-.27,2.7-2.4,2.7-2.4,1.25-1.61,7.36-8.93,9.7-10.79,2.69-2.14,3.29-2,4.13-1.78s1.87,1.75-4.38,7c-3.7,3-7.25,5.33-7.25,5.33-1.86,2.22-3.73,5.43-2.73,5.43s3-1.61,4.09-2.63a1.07,1.07,0,0,1,.81-0.52c0.15,0.14-.67.85-0.93,1.09s-3,3-5.05,3-1.71-1.91.79-4.91a5.12,5.12,0,0,0-1.31,1.13C56.8,51.46,56.16,52,56.5,51.3ZM62,47.64a68.76,68.76,0,0,0,8.28-6.47c1.39-1.24,4.08-4.3,2.21-4.3C71.17,36.86,67.86,39.91,62,47.64Z" transform="translate(-0.75 -1.14)"/><path class="cls-2" d="M172.32,52.31c0.77-1,2.09-2.84,2.71-3.65,0.42-.5.08-0.58-0.58-0.58a1.43,1.43,0,0,0-1.12.43c-1.35,1.12-2.44,2-4.14,3.32a21.51,21.51,0,0,1-2.94,2,1,1,0,0,1-.93.15,0.71,0.71,0,0,1,.12-0.7,19.1,19.1,0,0,1,1.47-2.09c0.77-.93,1.24-1.59,2-2.4,0.46-.5.39-0.62-0.42-0.62a3.71,3.71,0,0,0-2.24.85c-0.89.62-2.67,2.17-3,2.44a0.41,0.41,0,0,0-.19.43,0.39,0.39,0,0,0,.39-0.16c0.66-.62,1.16-1,1.7-1.47a17.18,17.18,0,0,1,1.55-1.12v0a16.45,16.45,0,0,0-2.75,3.21,4.14,4.14,0,0,0-.62,1.47,0.88,0.88,0,0,0,1,1.12c1.28,0,2.94-1.24,4.29-2.2,0.85-.62,2.16-1.66,3-2.32l0.12,0c-0.38.51-2.28,3.19-2.28,3.19-6.87,5.09-12.23,9-12.23,11.14s3.49,1.17,6-1.27a73.78,73.78,0,0,0,8.51-10.34c2.9-1.47,7-3.62,7.66-4.85,0.48-.86-0.25-0.93-0.93,0S174.85,51,172.32,52.31ZM158.65,65.5c-2.35,0,0-2.7,2.8-5.15s5-3.7,6.8-5.11C166.47,57.54,161,65.5,158.65,65.5Z" transform="translate(-0.75 -1.14)"/><path class="cls-2" d="M71.81,52.31c0.77-1,2.09-2.84,2.71-3.65,0.42-.5.08-0.58-0.58-0.58a1.43,1.43,0,0,0-1.12.43c-1.35,1.12-2.44,2-4.14,3.32a21.51,21.51,0,0,1-2.94,2,1,1,0,0,1-.93.15,0.71,0.71,0,0,1,.12-0.7,19.1,19.1,0,0,1,1.47-2.09c0.77-.93,1.24-1.59,2-2.4,0.46-.5.39-0.62-0.42-0.62a3.71,3.71,0,0,0-2.24.85c-0.89.62-2.67,2.17-3,2.44a0.41,0.41,0,0,0-.19.43,0.39,0.39,0,0,0,.39-0.16c0.66-.62,1.16-1,1.7-1.47a17.18,17.18,0,0,1,1.55-1.12v0a16.45,16.45,0,0,0-2.75,3.21,4.14,4.14,0,0,0-.62,1.47,0.88,0.88,0,0,0,1,1.12c1.28,0,2.94-1.24,4.29-2.2,0.85-.62,2.16-1.66,3-2.32l0.12,0c-0.38.51-2.28,3.19-2.28,3.19-6.87,5.09-12.23,9-12.23,11.14s3.49,1.17,6-1.27a73.78,73.78,0,0,0,8.51-10.34c2.9-1.47,7-3.62,7.66-4.85,0.48-.86-0.25-0.93-0.93,0S74.34,51,71.81,52.31ZM58.14,65.5c-2.35,0,0-2.7,2.8-5.15s5-3.7,6.8-5.11C66,57.54,60.49,65.5,58.14,65.5Z" transform="translate(-0.75 -1.14)"/><path class="cls-1" d="M22.42,64.21h2.15v5.08H30.4V64.21h2.15V76.42H30.4V71.28H24.57v5.15H22.42V64.21Z" transform="translate(-0.75 -1.14)"/><path class="cls-1" d="M34,73.77v0c0-2,1.55-3,3.81-3a7.68,7.68,0,0,1,2.48.38V70.93c0-1.31-.8-2-2.29-2a6.41,6.41,0,0,0-2.64.58l-0.56-1.66a7.88,7.88,0,0,1,3.47-.75,4.13,4.13,0,0,1,3.05,1,3.83,3.83,0,0,1,1,2.85v5.46H40.31V75.27a3.74,3.74,0,0,1-3,1.34C35.58,76.62,34,75.62,34,73.77Zm6.32-.66V72.48a5.87,5.87,0,0,0-2.09-.37c-1.36,0-2.16.58-2.16,1.54v0a1.55,1.55,0,0,0,1.8,1.4C39.29,75.08,40.36,74.28,40.36,73.11Z" transform="translate(-0.75 -1.14)"/><path class="cls-1" d="M44.49,63.68H46.6V76.42H44.49V63.68Z" transform="translate(-0.75 -1.14)"/><path class="cls-1" d="M48.16,71.85v0a4.58,4.58,0,0,1,4.5-4.8c2.93,0,4.42,2.3,4.42,5,0,0.19,0,.38,0,0.59H50.27a2.57,2.57,0,0,0,2.65,2.34,3.35,3.35,0,0,0,2.5-1.1l1.24,1.1a4.66,4.66,0,0,1-3.77,1.73A4.6,4.6,0,0,1,48.16,71.85ZM55,71.17a2.39,2.39,0,0,0-2.34-2.43,2.49,2.49,0,0,0-2.39,2.43H55Z" transform="translate(-0.75 -1.14)"/><path class="cls-1" d="M64.63,67.21h2.2l-3.67,9.48c-0.73,1.89-1.55,2.58-3,2.58a4.36,4.36,0,0,1-2.18-.56l0.72-1.57a2.6,2.6,0,0,0,1.24.35,1.35,1.35,0,0,0,1.31-1l-3.84-9.23h2.27l2.6,6.84Z" transform="translate(-0.75 -1.14)"/><path class="cls-1" d="M76.77,66.2H72.9v-2h9.92v2H78.94V76.42H76.77V66.2Z" transform="translate(-0.75 -1.14)"/><path class="cls-1" d="M81.25,73.77v0c0-2,1.55-3,3.81-3a7.68,7.68,0,0,1,2.48.38V70.93c0-1.31-.8-2-2.29-2a6.41,6.41,0,0,0-2.64.58l-0.56-1.66a7.88,7.88,0,0,1,3.47-.75,4.13,4.13,0,0,1,3.05,1,3.83,3.83,0,0,1,1,2.85v5.46H87.52V75.27a3.74,3.74,0,0,1-3,1.34C82.79,76.62,81.25,75.62,81.25,73.77Zm6.32-.66V72.48a5.87,5.87,0,0,0-2.09-.37c-1.36,0-2.16.58-2.16,1.54v0a1.55,1.55,0,0,0,1.8,1.4C86.51,75.08,87.57,74.28,87.57,73.11Z" transform="translate(-0.75 -1.14)"/><path class="cls-1" d="M91.93,73.88V69H90.76V67.21h1.17V64.68H94v2.53h2.48V69H94v4.52a1,1,0,0,0,1.13,1.15,2.84,2.84,0,0,0,1.31-.31v1.73a3.65,3.65,0,0,1-1.9.47C93,76.58,91.93,75.9,91.93,73.88Z" transform="translate(-0.75 -1.14)"/><path class="cls-1" d="M97.38,71.85v0a4.57,4.57,0,0,1,4.5-4.8c2.93,0,4.42,2.3,4.42,5,0,0.19,0,.38,0,0.59H99.49a2.57,2.57,0,0,0,2.65,2.34,3.35,3.35,0,0,0,2.5-1.1l1.24,1.1a4.66,4.66,0,0,1-3.77,1.73A4.6,4.6,0,0,1,97.38,71.85Zm6.83-.68a2.39,2.39,0,0,0-2.34-2.43,2.49,2.49,0,0,0-2.39,2.43h4.73Z" transform="translate(-0.75 -1.14)"/><path class="cls-1" d="M107,78.07a1.51,1.51,0,0,0,1.5-1.64h-0.91V74h2.32v2A2.56,2.56,0,0,1,107.22,79Z" transform="translate(-0.75 -1.14)"/><path class="cls-1" d="M117.31,66h3.87a5.17,5.17,0,0,1,5.52,5.16v0a5.2,5.2,0,0,1-5.52,5.19h-3.87V66Zm1.82,1.66v7.06h2a3.38,3.38,0,0,0,3.6-3.5v0a3.41,3.41,0,0,0-3.6-3.53h-2Z" transform="translate(-0.75 -1.14)"/><path class="cls-1" d="M128.17,66H132a5.17,5.17,0,0,1,5.52,5.16v0A5.2,5.2,0,0,1,132,76.42h-3.87V66ZM130,67.7v7.06h2a3.38,3.38,0,0,0,3.6-3.5v0A3.41,3.41,0,0,0,132,67.7h-2Z" transform="translate(-0.75 -1.14)"/><path class="cls-1" d="M138.18,74.91l1.1-1.31A4.81,4.81,0,0,0,142.55,75c1.13,0,1.84-.53,1.84-1.3v0c0-.74-0.42-1.14-2.34-1.59-2.21-.53-3.46-1.19-3.46-3.1v0c0-1.78,1.48-3,3.54-3a5.76,5.76,0,0,1,3.77,1.3l-1,1.38a4.71,4.71,0,0,0-2.82-1.07c-1.07,0-1.69.55-1.69,1.23v0c0,0.8.47,1.16,2.48,1.63,2.19,0.53,3.32,1.32,3.32,3v0c0,1.94-1.53,3.1-3.71,3.1A6.4,6.4,0,0,1,138.18,74.91Z" transform="translate(-0.75 -1.14)"/></svg>