<svg id="Layer_1" data-name="Layer 1" xmlns="http://www.w3.org/2000/svg" viewBox="0 0 548.23 248.02"><defs><style>.cls-1{fill:#fff;}</style></defs><title>tate-headline</title><path class="cls-1" d="M9.59,59.7V10.88H27.33A26.52,26.52,0,0,1,37.81,12.8a21.08,21.08,0,0,1,12.07,13,29.1,29.1,0,0,1,1.51,9.45,28.59,28.59,0,0,1-1.68,10.07A21.52,21.52,0,0,1,44.86,53a21.83,21.83,0,0,1-7.6,5,26.82,26.82,0,0,1-9.94,1.75H9.59ZM41.83,35.22a20.78,20.78,0,0,0-1-6.46,14.47,14.47,0,0,0-2.82-5.09,12.56,12.56,0,0,0-4.57-3.3,15.43,15.43,0,0,0-6.15-1.17H19.08V51.38h8.25a14.86,14.86,0,0,0,6.22-1.24,12.74,12.74,0,0,0,4.54-3.4,15.15,15.15,0,0,0,2.78-5.12A20.54,20.54,0,0,0,41.83,35.22Z" transform="translate(-6.18 -9.5)"/><path class="cls-1" d="M56.41,18.65V9.5h9.21v9.14H56.41Zm0,41v-36h9.21v36H56.41Z" transform="translate(-6.18 -9.5)"/><path class="cls-1" d="M88,60.38A31.91,31.91,0,0,1,83.46,60a38.88,38.88,0,0,1-4.64-1,32.12,32.12,0,0,1-4.33-1.51,20.87,20.87,0,0,1-3.64-2l3.71-6.26q6.87,4.47,13.27,4.47a8.53,8.53,0,0,0,4.54-1,3.29,3.29,0,0,0,1.65-3,3,3,0,0,0-2-2.85,37.09,37.09,0,0,0-6.57-2,54.79,54.79,0,0,1-6-1.72,14.62,14.62,0,0,1-4-2.06,7.11,7.11,0,0,1-2.2-2.68,8.58,8.58,0,0,1-.69-3.58,10.73,10.73,0,0,1,4.16-8.7,14.15,14.15,0,0,1,4.61-2.37A19.21,19.21,0,0,1,87.14,23a25.38,25.38,0,0,1,7.67,1.2,30.91,30.91,0,0,1,7.12,3.27l-3.78,5.71a25.07,25.07,0,0,0-5.71-2.78,17.49,17.49,0,0,0-5.36-.86,8.28,8.28,0,0,0-4.16,1,3.3,3.3,0,0,0-1.68,3.09,2.8,2.8,0,0,0,1.62,2.68,30.4,30.4,0,0,0,5.74,1.86q3.85,1,6.57,1.92a18.5,18.5,0,0,1,4.47,2.2,7.65,7.65,0,0,1,2.54,2.85A8.77,8.77,0,0,1,103,49a10.45,10.45,0,0,1-1.07,4.74,10.33,10.33,0,0,1-3,3.61,13.84,13.84,0,0,1-4.71,2.27A22.52,22.52,0,0,1,88,60.38Z" transform="translate(-6.18 -9.5)"/><path class="cls-1" d="M105.16,41.68a19.61,19.61,0,0,1,1.31-7.15,17.41,17.41,0,0,1,3.78-5.91,18.42,18.42,0,0,1,6-4.06A19.78,19.78,0,0,1,124.13,23a19,19,0,0,1,10.07,2.54,16.26,16.26,0,0,1,6.22,6.67l-9,2.75A8.11,8.11,0,0,0,128.33,32a8.66,8.66,0,0,0-4.26-1.07,8.78,8.78,0,0,0-3.71.79,9.14,9.14,0,0,0-3,2.2,10.18,10.18,0,0,0-2,3.4,12.84,12.84,0,0,0-.72,4.4,12.3,12.3,0,0,0,.76,4.4,11.07,11.07,0,0,0,2,3.44,8.9,8.9,0,0,0,3,2.23,8.61,8.61,0,0,0,3.64.79,8.84,8.84,0,0,0,4.57-1.24,7,7,0,0,0,2.92-3l9,2.75a15.14,15.14,0,0,1-6.12,6.74,19.22,19.22,0,0,1-10.24,2.61,19.78,19.78,0,0,1-7.91-1.51,17.91,17.91,0,0,1-9.8-10.07A19.24,19.24,0,0,1,105.16,41.68Z" transform="translate(-6.18 -9.5)"/><path class="cls-1" d="M162.43,60.38a19.79,19.79,0,0,1-7.91-1.51,17.74,17.74,0,0,1-5.95-4.09,18,18,0,0,1-3.75-5.95,19.41,19.41,0,0,1-1.31-7.08,19.61,19.61,0,0,1,1.31-7.15,18,18,0,0,1,3.75-5.95,17.75,17.75,0,0,1,5.95-4.09A19.79,19.79,0,0,1,162.43,23a19.54,19.54,0,0,1,7.87,1.51,17.86,17.86,0,0,1,5.91,4.09A18.08,18.08,0,0,1,180,34.6a19.63,19.63,0,0,1,1.31,7.15A19.43,19.43,0,0,1,180,48.83a18.36,18.36,0,0,1-3.71,5.95,17.39,17.39,0,0,1-5.91,4.09A19.79,19.79,0,0,1,162.43,60.38ZM153,41.75a12.54,12.54,0,0,0,.72,4.37,10.65,10.65,0,0,0,2,3.4,8.9,8.9,0,0,0,3,2.23,9.11,9.11,0,0,0,7.43,0,8.92,8.92,0,0,0,3-2.23,10.59,10.59,0,0,0,2-3.44,12.84,12.84,0,0,0,.72-4.4,12.63,12.63,0,0,0-.72-4.33,10.59,10.59,0,0,0-2-3.44,8.94,8.94,0,0,0-3-2.23,8.79,8.79,0,0,0-3.71-.79,8.46,8.46,0,0,0-3.71.83,9.31,9.31,0,0,0-3,2.27,10.58,10.58,0,0,0-2,3.44A12.64,12.64,0,0,0,153,41.75Z" transform="translate(-6.18 -9.5)"/><path class="cls-1" d="M194.4,59.7l-13.27-36h9.49l9.14,28.53L209,23.67h8.66l-13.27,36h-10Z" transform="translate(-6.18 -9.5)"/><path class="cls-1" d="M234.83,60.38A20,20,0,0,1,227,58.91,17.68,17.68,0,0,1,217.2,49a19,19,0,0,1-1.34-7.08,20.07,20.07,0,0,1,1.31-7.25,17.69,17.69,0,0,1,3.78-6,18.05,18.05,0,0,1,6-4.09A20,20,0,0,1,234.9,23a19.54,19.54,0,0,1,7.87,1.51,18.13,18.13,0,0,1,5.91,4.06,17.27,17.27,0,0,1,3.71,5.91,19.7,19.7,0,0,1,1.27,7q0,0.89,0,1.72a7.09,7.09,0,0,1-.17,1.38H225.62a10.69,10.69,0,0,0,1,3.78A9.26,9.26,0,0,0,231.74,53a9.71,9.71,0,0,0,3.44.62,10.63,10.63,0,0,0,5.19-1.34,7.1,7.1,0,0,0,3.33-3.54l7.91,2.2a16.08,16.08,0,0,1-6.36,6.77A19.71,19.71,0,0,1,234.83,60.38Zm9.35-21.73a9.59,9.59,0,0,0-3-6.5,9.39,9.39,0,0,0-12.75,0,9.43,9.43,0,0,0-2,2.82,9.91,9.91,0,0,0-.93,3.64h18.7Z" transform="translate(-6.18 -9.5)"/><path class="cls-1" d="M280.76,31.64a18.18,18.18,0,0,0-7.49,1.62,9.46,9.46,0,0,0-4.74,4.64V59.7h-9.21v-36h8.46v7.7a16.77,16.77,0,0,1,4.85-6,10.26,10.26,0,0,1,6.29-2.27q0.76,0,1.13,0a7.16,7.16,0,0,1,.72.1v8.39Z" transform="translate(-6.18 -9.5)"/><path class="cls-1" d="M327.2,34.46h3.2L319.59,59.7h-2.76l-5.38-12.89L306.08,59.7h-2.76l-10.8-25.24h3.15l9.2,21.85,4.8-11.53-4.31-10.27h2.81l3.29,8.24,3.25-8.24h2.81l-4.26,10.27L318,56.31Z" transform="translate(-6.18 -9.5)"/><path class="cls-1" d="M355.93,59.7h-3.29V45.6q0-4.31-1.48-6.44A4.94,4.94,0,0,0,346.82,37a7.4,7.4,0,0,0-2.79.56,10.33,10.33,0,0,0-2.59,1.53,10.5,10.5,0,0,0-2.11,2.28A9.64,9.64,0,0,0,338,44.24V59.7h-3.29V24.33H338V40.17a11.8,11.8,0,0,1,4.21-4.51A10.68,10.68,0,0,1,347.93,34a7.91,7.91,0,0,1,3.71.8,6.56,6.56,0,0,1,2.47,2.23,10,10,0,0,1,1.38,3.44,21,21,0,0,1,.44,4.43V59.7Z" transform="translate(-6.18 -9.5)"/><path class="cls-1" d="M363.68,67.5l0.48,0.07,0.48,0a6.12,6.12,0,0,0,1-.1,4.49,4.49,0,0,0,.8-0.19,1.4,1.4,0,0,0,.51-0.41,6.52,6.52,0,0,0,.68-1.11q0.41-.8,1-2.23t1.6-3.85l-11-25.24h3.44l9.35,22.19,8.62-22.19h3.15L370.75,67a5.83,5.83,0,0,1-2,2.66,5.94,5.94,0,0,1-3.46.87,8.42,8.42,0,0,1-1.65-.15V67.5Z" transform="translate(-6.18 -9.5)"/><path class="cls-1" d="M412.51,60.18a10.09,10.09,0,0,1-5.67-1.62,12.81,12.81,0,0,1-4-4.09V70h-3.29V34.46h3v4.89a12.24,12.24,0,0,1,4-3.85A10.29,10.29,0,0,1,411.92,34a10.73,10.73,0,0,1,4.82,1.09,12.24,12.24,0,0,1,3.8,2.91,13.53,13.53,0,0,1,2.5,4.19,13.76,13.76,0,0,1,.9,4.89,15.26,15.26,0,0,1-.82,5,12.85,12.85,0,0,1-2.35,4.17,11.28,11.28,0,0,1-3.63,2.83A10.3,10.3,0,0,1,412.51,60.18Zm-0.92-2.91a7.75,7.75,0,0,0,3.68-.87,9.32,9.32,0,0,0,2.83-2.3,10.33,10.33,0,0,0,1.82-3.25,11.38,11.38,0,0,0,.63-3.75,10.46,10.46,0,0,0-.73-3.88,10.7,10.7,0,0,0-2-3.25,9.44,9.44,0,0,0-3-2.23,8.47,8.47,0,0,0-3.71-.82,7.43,7.43,0,0,0-2.62.51A11.53,11.53,0,0,0,406,38.79a8.91,8.91,0,0,0-2.06,2,5.34,5.34,0,0,0-1,2.4v7.75a11.58,11.58,0,0,0,1.48,2.52,10.39,10.39,0,0,0,2,2,9.57,9.57,0,0,0,2.47,1.33A8,8,0,0,0,411.59,57.27Z" transform="translate(-6.18 -9.5)"/><path class="cls-1" d="M440.41,60.18a12.26,12.26,0,0,1-9.11-3.9,13.27,13.27,0,0,1-2.64-4.19,13.62,13.62,0,0,1-.94-5.09,13.31,13.31,0,0,1,.94-5,12.68,12.68,0,0,1,6.64-6.93,12.31,12.31,0,0,1,14.07,2.83A13.3,13.3,0,0,1,452.86,47q0,0.39,0,.77a2.46,2.46,0,0,1-.07.53H431.21a10.65,10.65,0,0,0,3,6.73A8.91,8.91,0,0,0,437,57a8.62,8.62,0,0,0,3.46.7,9.12,9.12,0,0,0,2.47-.34,9.81,9.81,0,0,0,2.23-.92A7.82,7.82,0,0,0,447,55a6.35,6.35,0,0,0,1.24-1.86l2.86,0.77a8.39,8.39,0,0,1-1.65,2.54,11.48,11.48,0,0,1-2.47,2,12.09,12.09,0,0,1-3.1,1.31A13.29,13.29,0,0,1,440.41,60.18Zm9.3-14.44a10.12,10.12,0,0,0-3-6.59,9,9,0,0,0-2.88-1.89,9.31,9.31,0,0,0-7,0A9,9,0,0,0,434,39.16a9.28,9.28,0,0,0-2,2.91,11,11,0,0,0-.9,3.68h18.6Z" transform="translate(-6.18 -9.5)"/><path class="cls-1" d="M468.7,60.18a12.13,12.13,0,0,1-5.06-1,12.28,12.28,0,0,1-4-2.83,12.84,12.84,0,0,1-2.59-4.17,13.66,13.66,0,0,1-.92-5,13.5,13.5,0,0,1,.94-5,13.21,13.21,0,0,1,2.62-4.17,12.62,12.62,0,0,1,4-2.86,12.32,12.32,0,0,1,10,0,12.63,12.63,0,0,1,4,2.86,13.21,13.21,0,0,1,2.62,4.17,13.78,13.78,0,0,1,0,10,13.19,13.19,0,0,1-2.62,4.17,12.29,12.29,0,0,1-4,2.83A12,12,0,0,1,468.7,60.18Zm-9.16-13a10.85,10.85,0,0,0,.7,3.95,10.33,10.33,0,0,0,1.94,3.2,8.87,8.87,0,0,0,2.91,2.16,8.35,8.35,0,0,0,3.56.78,8.15,8.15,0,0,0,3.56-.8,9.49,9.49,0,0,0,2.93-2.18,10.39,10.39,0,0,0,2-3.22,11.14,11.14,0,0,0,0-7.92,10.34,10.34,0,0,0-2-3.25,9.58,9.58,0,0,0-2.91-2.18,8,8,0,0,0-3.54-.8,8.15,8.15,0,0,0-3.56.8,9,9,0,0,0-2.91,2.2A11,11,0,0,0,459.54,47.2Z" transform="translate(-6.18 -9.5)"/><path class="cls-1" d="M499.56,60.18a10.09,10.09,0,0,1-5.67-1.62,12.81,12.81,0,0,1-4-4.09V70h-3.29V34.46h3v4.89a12.24,12.24,0,0,1,4-3.85A10.29,10.29,0,0,1,499,34a10.73,10.73,0,0,1,4.82,1.09A12.24,12.24,0,0,1,507.6,38a13.53,13.53,0,0,1,2.5,4.19,13.76,13.76,0,0,1,.9,4.89,15.26,15.26,0,0,1-.82,5,12.85,12.85,0,0,1-2.35,4.17,11.28,11.28,0,0,1-3.63,2.83A10.3,10.3,0,0,1,499.56,60.18Zm-0.92-2.91a7.75,7.75,0,0,0,3.68-.87,9.32,9.32,0,0,0,2.83-2.3A10.33,10.33,0,0,0,507,50.86a11.38,11.38,0,0,0,.63-3.75,10.46,10.46,0,0,0-.73-3.88,10.7,10.7,0,0,0-2-3.25,9.44,9.44,0,0,0-3-2.23,8.47,8.47,0,0,0-3.71-.82,7.43,7.43,0,0,0-2.62.51A11.53,11.53,0,0,0,493,38.79a8.91,8.91,0,0,0-2.06,2,5.34,5.34,0,0,0-1,2.4v7.75a11.58,11.58,0,0,0,1.48,2.52,10.39,10.39,0,0,0,2,2,9.57,9.57,0,0,0,2.47,1.33A8,8,0,0,0,498.63,57.27Z" transform="translate(-6.18 -9.5)"/><path class="cls-1" d="M516.56,24.33h3.29V54a3,3,0,0,0,.78,2.2,2.89,2.89,0,0,0,2.18.8,6.57,6.57,0,0,0,1.26-.15,8.32,8.32,0,0,0,1.36-.39L526,59.12a10.82,10.82,0,0,1-2.25.63,13.17,13.17,0,0,1-2.3.24,4.9,4.9,0,0,1-3.58-1.28,4.82,4.82,0,0,1-1.31-3.61V24.33Z" transform="translate(-6.18 -9.5)"/><path class="cls-1" d="M540.25,60.18a12.26,12.26,0,0,1-9.11-3.9,13.27,13.27,0,0,1-2.64-4.19,13.62,13.62,0,0,1-.94-5.09,13.31,13.31,0,0,1,.94-5,12.68,12.68,0,0,1,6.64-6.93,12.31,12.31,0,0,1,14.07,2.83A13.3,13.3,0,0,1,552.7,47q0,0.39,0,.77a2.46,2.46,0,0,1-.07.53H531A10.65,10.65,0,0,0,534,55a8.91,8.91,0,0,0,2.86,2,8.62,8.62,0,0,0,3.46.7,9.12,9.12,0,0,0,2.47-.34A9.81,9.81,0,0,0,545,56.4,7.82,7.82,0,0,0,546.86,55a6.35,6.35,0,0,0,1.24-1.86L551,53.88a8.39,8.39,0,0,1-1.65,2.54,11.48,11.48,0,0,1-2.47,2,12.09,12.09,0,0,1-3.1,1.31A13.29,13.29,0,0,1,540.25,60.18Zm9.3-14.44a10.12,10.12,0,0,0-3-6.59,9,9,0,0,0-2.88-1.89,9.31,9.31,0,0,0-7,0,9,9,0,0,0-2.88,1.89,9.28,9.28,0,0,0-2,2.91,11,11,0,0,0-.9,3.68h18.6Z" transform="translate(-6.18 -9.5)"/><path class="cls-1" d="M10.34,125.9V102.43H6.18V99.3h4.16V95q0-5.55,2.37-8.7a7.72,7.72,0,0,1,6.53-3.15,11.45,11.45,0,0,1,3.41.52A10.08,10.08,0,0,1,25.55,85l-1.21,2.83a5.88,5.88,0,0,0-2-1A8.32,8.32,0,0,0,20,86.53a4.85,4.85,0,0,0-4.25,2.14,10.87,10.87,0,0,0-1.47,6.19V99.3H22.6v3.12H14.27V125.9H10.34Z" transform="translate(-6.18 -9.5)"/><path class="cls-1" d="M42.54,99.25a12.37,12.37,0,0,0-6.94,2.2,11.08,11.08,0,0,0-4.16,5.72V125.9H27.51V95.78h3.7V103a15.84,15.84,0,0,1,4.11-5.29,8.44,8.44,0,0,1,5.49-2.11h1a4,4,0,0,1,.75.06v3.58Z" transform="translate(-6.18 -9.5)"/><path class="cls-1" d="M58.27,126.48a14.48,14.48,0,0,1-6-1.24,14.66,14.66,0,0,1-4.74-3.38,15.32,15.32,0,0,1-3.09-5,16.32,16.32,0,0,1-1.1-6,16.12,16.12,0,0,1,1.13-6,15.77,15.77,0,0,1,3.12-5,15.08,15.08,0,0,1,4.74-3.41,14.71,14.71,0,0,1,12,0A15.09,15.09,0,0,1,69,99.94a15.77,15.77,0,0,1,3.12,5,16.44,16.44,0,0,1,0,12,15.74,15.74,0,0,1-3.12,5,14.68,14.68,0,0,1-4.74,3.38A14.34,14.34,0,0,1,58.27,126.48ZM47.34,111a13,13,0,0,0,.84,4.71,12.32,12.32,0,0,0,2.31,3.82A10.58,10.58,0,0,0,54,122.08a10,10,0,0,0,4.25.92,9.73,9.73,0,0,0,4.25-1,11.29,11.29,0,0,0,3.5-2.6,12.39,12.39,0,0,0,2.37-3.84,13.31,13.31,0,0,0,0-9.45A12.33,12.33,0,0,0,66,102.28a11.41,11.41,0,0,0-3.47-2.6,9.55,9.55,0,0,0-4.22-1,9.73,9.73,0,0,0-4.25,1,10.76,10.76,0,0,0-3.47,2.63A13.1,13.1,0,0,0,47.34,111Z" transform="translate(-6.18 -9.5)"/><path class="cls-1" d="M123.31,125.9h-3.93V109.08q0-5.26-1.65-7.75a5.59,5.59,0,0,0-5-2.49,8.44,8.44,0,0,0-3.27.64,10.07,10.07,0,0,0-2.83,1.79,12.3,12.3,0,0,0-2.28,2.75,13.23,13.23,0,0,0-1.5,3.5V125.9H98.91V109.08q0-5.38-1.62-7.81a5.56,5.56,0,0,0-5-2.43,8.87,8.87,0,0,0-6.07,2.37,13.2,13.2,0,0,0-3.82,6.24V125.9H78.5V95.78h3.58v6.82a14.24,14.24,0,0,1,4.86-5.41,12,12,0,0,1,6.65-1.94,8.67,8.67,0,0,1,6.13,2.14A9,9,0,0,1,102.5,103q4.22-7.75,11.68-7.75a9.05,9.05,0,0,1,4.25.93,7.3,7.3,0,0,1,2.83,2.63,12.34,12.34,0,0,1,1.56,4.1,26.78,26.78,0,0,1,.49,5.35V125.9Z" transform="translate(-6.18 -9.5)"/><path class="cls-1" d="M154.25,126.48a11.84,11.84,0,0,1-4.22-.72,9.77,9.77,0,0,1-3.27-2,9.08,9.08,0,0,1-2.11-2.95,8.52,8.52,0,0,1-.75-3.53,7.81,7.81,0,0,1,.93-3.79,8.71,8.71,0,0,1,2.6-2.92,12.7,12.7,0,0,1,4-1.88,18.92,18.92,0,0,1,5.17-.67,27.5,27.5,0,0,1,4.63.4,20.37,20.37,0,0,1,4.22,1.16v-2.72a8.68,8.68,0,0,0-2.28-6.33A8.21,8.21,0,0,0,157,98.21a13.34,13.34,0,0,0-4.83.93,23.15,23.15,0,0,0-4.89,2.66l-1.39-2.6a26.18,26.18,0,0,1,5.72-2.95,17.2,17.2,0,0,1,5.78-1,11.92,11.92,0,0,1,8.73,3.18q3.24,3.18,3.24,8.79v13.59q0,1.62,1.39,1.62v3.47l-0.87.09-0.69,0a3.51,3.51,0,0,1-2.11-.69,2.7,2.7,0,0,1-1.07-2.08l-0.12-2.37a13.1,13.1,0,0,1-5.17,4.13A15.44,15.44,0,0,1,154.25,126.48Zm1-3a12.8,12.8,0,0,0,5.17-1.13,10.13,10.13,0,0,0,4.08-3.09,6.19,6.19,0,0,0,.69-1.13,2.65,2.65,0,0,0,.29-1.13v-4.91a24.06,24.06,0,0,0-4.11-1.16,22.44,22.44,0,0,0-4.16-.4,12.4,12.4,0,0,0-6.85,1.71,5.33,5.33,0,0,0-2.63,4.71,6.31,6.31,0,0,0,.46,2.37,6,6,0,0,0,1.42,2.08,7.4,7.4,0,0,0,2.34,1.5A8.54,8.54,0,0,0,155.23,123.47Z" transform="translate(-6.18 -9.5)"/><path class="cls-1" d="M175.81,83.69h3.93v35.38a3.62,3.62,0,0,0,.93,2.63,3.45,3.45,0,0,0,2.6,1,7.81,7.81,0,0,0,1.5-.17,9.89,9.89,0,0,0,1.62-.46l0.69,3.18a12.91,12.91,0,0,1-2.69.75,15.71,15.71,0,0,1-2.75.29,5.84,5.84,0,0,1-4.28-1.53,5.76,5.76,0,0,1-1.56-4.31V83.69Z" transform="translate(-6.18 -9.5)"/><path class="cls-1" d="M191.07,83.69H195v35.38a3.62,3.62,0,0,0,.93,2.63,3.45,3.45,0,0,0,2.6,1,7.81,7.81,0,0,0,1.5-.17,9.89,9.89,0,0,0,1.62-.46l0.69,3.18a12.91,12.91,0,0,1-2.69.75,15.71,15.71,0,0,1-2.75.29,5.84,5.84,0,0,1-4.28-1.53,5.76,5.76,0,0,1-1.56-4.31V83.69Z" transform="translate(-6.18 -9.5)"/><path class="cls-1" d="M231.2,126.48a14.48,14.48,0,0,1-6-1.24,14.66,14.66,0,0,1-4.74-3.38,15.32,15.32,0,0,1-3.09-5,16.32,16.32,0,0,1-1.1-6,16.12,16.12,0,0,1,1.13-6,15.77,15.77,0,0,1,3.12-5,15.08,15.08,0,0,1,4.74-3.41,14.71,14.71,0,0,1,12,0,15.09,15.09,0,0,1,4.74,3.41,15.77,15.77,0,0,1,3.12,5,16.44,16.44,0,0,1,0,12,15.74,15.74,0,0,1-3.12,5,14.68,14.68,0,0,1-4.74,3.38A14.34,14.34,0,0,1,231.2,126.48ZM220.27,111a13,13,0,0,0,.84,4.71,12.32,12.32,0,0,0,2.31,3.82,10.58,10.58,0,0,0,3.47,2.57,10,10,0,0,0,4.25.92,9.73,9.73,0,0,0,4.25-1,11.29,11.29,0,0,0,3.5-2.6,12.39,12.39,0,0,0,2.37-3.84,13.31,13.31,0,0,0,0-9.45,12.33,12.33,0,0,0-2.37-3.87,11.41,11.41,0,0,0-3.47-2.6,9.55,9.55,0,0,0-4.22-1,9.73,9.73,0,0,0-4.25,1,10.76,10.76,0,0,0-3.47,2.63A13.1,13.1,0,0,0,220.27,111Z" transform="translate(-6.18 -9.5)"/><path class="cls-1" d="M258.26,125.9L246,95.78h4.1l10.35,26.48,10.41-26.48h3.82L262.42,125.9h-4.16Z" transform="translate(-6.18 -9.5)"/><path class="cls-1" d="M289.6,126.48a14.63,14.63,0,0,1-10.87-4.65,15.82,15.82,0,0,1-3.15-5,16.26,16.26,0,0,1-1.13-6.07,15.9,15.9,0,0,1,1.13-6,15.14,15.14,0,0,1,7.92-8.27,14.69,14.69,0,0,1,16.8,3.38,15.89,15.89,0,0,1,4.16,10.81c0,0.31,0,.62,0,0.92a2.87,2.87,0,0,1-.09.64H278.61a12.72,12.72,0,0,0,3.56,8,10.64,10.64,0,0,0,3.41,2.34,10.29,10.29,0,0,0,4.13.84,10.89,10.89,0,0,0,2.95-.4,11.67,11.67,0,0,0,2.66-1.1,9.25,9.25,0,0,0,2.17-1.71A7.54,7.54,0,0,0,299,118l3.41,0.93a10,10,0,0,1-2,3,13.69,13.69,0,0,1-2.95,2.37,14.43,14.43,0,0,1-3.7,1.56A15.83,15.83,0,0,1,289.6,126.48Zm11.1-17.23a12.08,12.08,0,0,0-3.55-7.86,10.68,10.68,0,0,0-3.44-2.25,11.11,11.11,0,0,0-8.33,0,10.66,10.66,0,0,0-3.44,2.25,11.08,11.08,0,0,0-2.37,3.47,13.14,13.14,0,0,0-1.07,4.39h22.2Z" transform="translate(-6.18 -9.5)"/><path class="cls-1" d="M324.23,99.25a12.37,12.37,0,0,0-6.94,2.2,11.08,11.08,0,0,0-4.16,5.72V125.9h-3.93V95.78h3.7V103A15.83,15.83,0,0,1,317,97.71a8.44,8.44,0,0,1,5.49-2.11h1a4,4,0,0,1,.75.06v3.58Z" transform="translate(-6.18 -9.5)"/><path class="cls-1" d="M357.59,124.46l-1,.46q-0.67.29-1.53,0.58a17.76,17.76,0,0,1-2,.52,11.27,11.27,0,0,1-2.31.23,8.4,8.4,0,0,1-2.43-.35,5.65,5.65,0,0,1-2-1.07,5.25,5.25,0,0,1-1.39-1.82,5.88,5.88,0,0,1-.52-2.54V98.9h-4.16V95.78h4.16V85.6h3.93V95.78h6.94V98.9h-6.94v20.47a3.16,3.16,0,0,0,1.16,2.46,4,4,0,0,0,2.49.78,7.37,7.37,0,0,0,2.95-.55,13,13,0,0,0,1.62-.78Z" transform="translate(-6.18 -9.5)"/><path class="cls-1" d="M377.25,99.25a12.37,12.37,0,0,0-6.94,2.2,11.08,11.08,0,0,0-4.16,5.72V125.9h-3.93V95.78h3.7V103A15.83,15.83,0,0,1,370,97.71a8.44,8.44,0,0,1,5.49-2.11h1a4,4,0,0,1,.75.06v3.58Z" transform="translate(-6.18 -9.5)"/><path class="cls-1" d="M388.75,126.48a11.84,11.84,0,0,1-4.22-.72,9.78,9.78,0,0,1-3.27-2,9.09,9.09,0,0,1-2.11-2.95,8.53,8.53,0,0,1-.75-3.53,7.81,7.81,0,0,1,.92-3.79,8.71,8.71,0,0,1,2.6-2.92,12.69,12.69,0,0,1,4-1.88,18.92,18.92,0,0,1,5.17-.67,27.5,27.5,0,0,1,4.63.4A20.35,20.35,0,0,1,400,109.6v-2.72a8.68,8.68,0,0,0-2.28-6.33,8.21,8.21,0,0,0-6.16-2.34,13.34,13.34,0,0,0-4.83.93,23.1,23.1,0,0,0-4.89,2.66l-1.39-2.6a26.19,26.19,0,0,1,5.72-2.95,17.2,17.2,0,0,1,5.78-1,11.92,11.92,0,0,1,8.73,3.18q3.24,3.18,3.24,8.79v13.59q0,1.62,1.39,1.62v3.47l-0.87.09-0.69,0a3.51,3.51,0,0,1-2.11-.69,2.7,2.7,0,0,1-1.07-2.08l-0.12-2.37a13.09,13.09,0,0,1-5.17,4.13A15.44,15.44,0,0,1,388.75,126.48Zm1-3a12.8,12.8,0,0,0,5.17-1.13,10.12,10.12,0,0,0,4.08-3.09,6.21,6.21,0,0,0,.69-1.13A2.65,2.65,0,0,0,400,117v-4.91a24.07,24.07,0,0,0-4.1-1.16,22.45,22.45,0,0,0-4.16-.4,12.41,12.41,0,0,0-6.85,1.71,5.33,5.33,0,0,0-2.63,4.71,6.3,6.3,0,0,0,.46,2.37,6,6,0,0,0,1.42,2.08,7.42,7.42,0,0,0,2.34,1.5A8.53,8.53,0,0,0,389.73,123.47Z" transform="translate(-6.18 -9.5)"/><path class="cls-1" d="M419.28,125.9L407,95.78h4.11l10.35,26.48,10.41-26.48h3.82L423.44,125.9h-4.16Z" transform="translate(-6.18 -9.5)"/><path class="cls-1" d="M450.62,126.48a14.63,14.63,0,0,1-10.87-4.65,15.81,15.81,0,0,1-3.15-5,16.25,16.25,0,0,1-1.13-6.07,15.89,15.89,0,0,1,1.13-6,15.13,15.13,0,0,1,7.92-8.27,14.69,14.69,0,0,1,16.8,3.38,15.88,15.88,0,0,1,4.16,10.81c0,0.31,0,.62,0,0.92a2.94,2.94,0,0,1-.09.64H439.63a12.71,12.71,0,0,0,3.56,8,10.64,10.64,0,0,0,3.41,2.34,10.29,10.29,0,0,0,4.13.84,10.88,10.88,0,0,0,2.95-.4,11.69,11.69,0,0,0,2.66-1.1,9.29,9.29,0,0,0,2.17-1.71A7.56,7.56,0,0,0,460,118l3.41,0.93a10,10,0,0,1-2,3,13.69,13.69,0,0,1-2.95,2.37,14.43,14.43,0,0,1-3.7,1.56A15.83,15.83,0,0,1,450.62,126.48Zm11.1-17.23a12.16,12.16,0,0,0-1.13-4.42,12,12,0,0,0-2.43-3.44,10.67,10.67,0,0,0-3.44-2.25,11.11,11.11,0,0,0-8.33,0,10.67,10.67,0,0,0-3.44,2.25,11.08,11.08,0,0,0-2.37,3.47,13.13,13.13,0,0,0-1.07,4.39h22.2Z" transform="translate(-6.18 -9.5)"/><path class="cls-1" d="M470.39,83.69h3.93v35.38a3.62,3.62,0,0,0,.92,2.63,3.45,3.45,0,0,0,2.6,1,7.83,7.83,0,0,0,1.5-.17A9.86,9.86,0,0,0,481,122l0.69,3.18A12.94,12.94,0,0,1,479,126a15.71,15.71,0,0,1-2.75.29,5.84,5.84,0,0,1-4.28-1.53,5.76,5.76,0,0,1-1.56-4.31V83.69Z" transform="translate(-6.18 -9.5)"/><path class="cls-1" d="M513.23,124.46l-1,.46q-0.67.29-1.53,0.58a17.76,17.76,0,0,1-2,.52,11.27,11.27,0,0,1-2.31.23,8.4,8.4,0,0,1-2.43-.35,5.65,5.65,0,0,1-2-1.07,5.25,5.25,0,0,1-1.39-1.82,5.88,5.88,0,0,1-.52-2.54V98.9h-4.16V95.78H500V85.6H504V95.78h6.94V98.9H504v20.47a3.16,3.16,0,0,0,1.16,2.46,4,4,0,0,0,2.49.78,7.37,7.37,0,0,0,2.95-.55,13,13,0,0,0,1.62-.78Z" transform="translate(-6.18 -9.5)"/><path class="cls-1" d="M529.07,126.48a14.48,14.48,0,0,1-6-1.24,14.67,14.67,0,0,1-4.74-3.38,15.33,15.33,0,0,1-3.09-5,16.33,16.33,0,0,1-1.1-6,16.11,16.11,0,0,1,1.13-6,15.75,15.75,0,0,1,3.12-5,15.06,15.06,0,0,1,4.74-3.41,14.71,14.71,0,0,1,12,0,15.09,15.09,0,0,1,4.74,3.41,15.77,15.77,0,0,1,3.12,5,16.44,16.44,0,0,1,0,12,15.74,15.74,0,0,1-3.12,5,14.68,14.68,0,0,1-4.74,3.38A14.35,14.35,0,0,1,529.07,126.48ZM518.15,111a12.94,12.94,0,0,0,.84,4.71,12.34,12.34,0,0,0,2.31,3.82,10.59,10.59,0,0,0,3.47,2.57A10,10,0,0,0,529,123a9.73,9.73,0,0,0,4.25-1,11.31,11.31,0,0,0,3.5-2.6,12.39,12.39,0,0,0,2.37-3.84,13.31,13.31,0,0,0,0-9.45,12.33,12.33,0,0,0-2.37-3.87,11.41,11.41,0,0,0-3.47-2.6,9.54,9.54,0,0,0-4.22-1,9.72,9.72,0,0,0-4.25,1,10.77,10.77,0,0,0-3.47,2.63A13.12,13.12,0,0,0,518.15,111Z" transform="translate(-6.18 -9.5)"/><path class="cls-1" d="M12.7,157.87v29.91H9.14V151.17h2.78l24.24,30.48V151.22h3.56v36.56H36.63Z" transform="translate(-6.18 -9.5)"/><path class="cls-1" d="M57.82,188.3a13,13,0,0,1-9.69-4.15,14.12,14.12,0,0,1-2.81-4.46,14.51,14.51,0,0,1-1-5.42,14.17,14.17,0,0,1,1-5.34,13.49,13.49,0,0,1,7.06-7.37,13.1,13.1,0,0,1,15,3,14.16,14.16,0,0,1,3.71,9.64q0,0.41,0,.83a2.66,2.66,0,0,1-.08.57H48a11.35,11.35,0,0,0,3.17,7.17,9.49,9.49,0,0,0,3,2.09,9.18,9.18,0,0,0,3.69.75,9.73,9.73,0,0,0,2.63-.36,10.39,10.39,0,0,0,2.37-1,8.28,8.28,0,0,0,1.93-1.52,6.77,6.77,0,0,0,1.32-2l3,0.82a8.93,8.93,0,0,1-1.75,2.71,12.27,12.27,0,0,1-2.63,2.11,12.88,12.88,0,0,1-3.3,1.39A14.1,14.1,0,0,1,57.82,188.3Zm9.9-15.37a10.84,10.84,0,0,0-1-3.94,10.73,10.73,0,0,0-2.17-3.07,9.53,9.53,0,0,0-3.07-2,9.91,9.91,0,0,0-7.43,0,9.53,9.53,0,0,0-3.07,2A9.88,9.88,0,0,0,48.87,169a11.71,11.71,0,0,0-1,3.92h19.8Z" transform="translate(-6.18 -9.5)"/><path class="cls-1" d="M108.51,160.92h3.4l-11.5,26.87H97.48l-5.72-13.72L86,187.78H83.09l-11.5-26.87h3.35l9.8,23.26,5.1-12.27L85.25,161h3l3.51,8.77L95.21,161h3L93.66,171.9l5.1,12.27Z" transform="translate(-6.18 -9.5)"/><path class="cls-1" d="M161.57,187.78V157.72L148.22,181H146.1l-13.41-23.26v30.06h-3.56V151.17h3.66l14.34,25.06,14.34-25.06h3.66v36.61h-3.56Z" transform="translate(-6.18 -9.5)"/><path class="cls-1" d="M179.62,188.3a10.55,10.55,0,0,1-3.76-.64,8.72,8.72,0,0,1-2.91-1.78,8.1,8.1,0,0,1-1.88-2.63,7.6,7.6,0,0,1-.67-3.15,7,7,0,0,1,.82-3.38,7.77,7.77,0,0,1,2.32-2.6,11.33,11.33,0,0,1,3.58-1.68,16.89,16.89,0,0,1,4.62-.59,24.54,24.54,0,0,1,4.13.36,18.19,18.19,0,0,1,3.76,1v-2.42a7.74,7.74,0,0,0-2-5.65,7.32,7.32,0,0,0-5.49-2.09,11.91,11.91,0,0,0-4.31.83,20.66,20.66,0,0,0-4.36,2.37L172.19,164a23.38,23.38,0,0,1,5.1-2.63,15.34,15.34,0,0,1,5.16-.88,10.63,10.63,0,0,1,7.79,2.84,10.48,10.48,0,0,1,2.89,7.84v12.12a1.19,1.19,0,0,0,1.24,1.44v3.09l-0.77.08-0.62,0a3.13,3.13,0,0,1-1.88-.62,2.41,2.41,0,0,1-1-1.86l-0.1-2.11a11.68,11.68,0,0,1-4.62,3.69A13.78,13.78,0,0,1,179.62,188.3Zm0.88-2.68a11.4,11.4,0,0,0,4.62-1,9,9,0,0,0,3.64-2.76,5.51,5.51,0,0,0,.62-1,2.36,2.36,0,0,0,.26-1v-4.38a21.37,21.37,0,0,0-3.66-1,20.08,20.08,0,0,0-3.71-.36,11.07,11.07,0,0,0-6.11,1.52,4.75,4.75,0,0,0-2.35,4.2,5.63,5.63,0,0,0,.41,2.11,5.31,5.31,0,0,0,1.26,1.86,6.59,6.59,0,0,0,2.09,1.34A7.62,7.62,0,0,0,180.5,185.62Z" transform="translate(-6.18 -9.5)"/><path class="cls-1" d="M214.17,164a11,11,0,0,0-6.19,2,9.88,9.88,0,0,0-3.71,5.11v16.71h-3.51V160.92h3.3v6.45a14.12,14.12,0,0,1,3.66-4.72,7.53,7.53,0,0,1,4.9-1.88h0.88a3.55,3.55,0,0,1,.67.05V164Z" transform="translate(-6.18 -9.5)"/><path class="cls-1" d="M238,187.78L228.14,174l-5.78,5.36v8.41h-3.51V150.14h3.51v25.58L237.48,161h4l-11,11,11.4,15.83H238Z" transform="translate(-6.18 -9.5)"/><path class="cls-1" d="M254.7,188.3a13,13,0,0,1-9.69-4.15,14.12,14.12,0,0,1-2.81-4.46,14.51,14.51,0,0,1-1-5.42,14.17,14.17,0,0,1,1-5.34,13.49,13.49,0,0,1,7.06-7.37,13.1,13.1,0,0,1,15,3,14.16,14.16,0,0,1,3.71,9.64q0,0.41,0,.83a2.66,2.66,0,0,1-.08.57H244.9a11.35,11.35,0,0,0,3.17,7.17,9.49,9.49,0,0,0,3,2.09,9.18,9.18,0,0,0,3.69.75,9.73,9.73,0,0,0,2.63-.36,10.39,10.39,0,0,0,2.37-1,8.28,8.28,0,0,0,1.93-1.52,6.77,6.77,0,0,0,1.32-2l3,0.82a8.93,8.93,0,0,1-1.75,2.71,12.27,12.27,0,0,1-2.63,2.11,12.88,12.88,0,0,1-3.3,1.39A14.1,14.1,0,0,1,254.7,188.3Zm9.9-15.37a10.84,10.84,0,0,0-1-3.94,10.73,10.73,0,0,0-2.17-3.07,9.53,9.53,0,0,0-3.07-2,9.91,9.91,0,0,0-7.43,0,9.53,9.53,0,0,0-3.07,2,9.88,9.88,0,0,0-2.11,3.09,11.71,11.71,0,0,0-1,3.92h19.8Z" transform="translate(-6.18 -9.5)"/><path class="cls-1" d="M284.92,186.49l-0.9.41q-0.59.26-1.37,0.52a15.85,15.85,0,0,1-1.75.46,10.05,10.05,0,0,1-2.06.21,7.5,7.5,0,0,1-2.17-.31,5,5,0,0,1-1.81-1,4.69,4.69,0,0,1-1.24-1.62,5.24,5.24,0,0,1-.46-2.27V163.7h-3.71v-2.78h3.71v-9.08h3.51v9.08h6.19v2.78h-6.19V182a2.82,2.82,0,0,0,1,2.19,3.59,3.59,0,0,0,2.22.7,6.58,6.58,0,0,0,2.63-.49,11.56,11.56,0,0,0,1.44-.7Z" transform="translate(-6.18 -9.5)"/><path class="cls-1" d="M315.24,186.49l-0.9.41q-0.59.26-1.37,0.52a15.85,15.85,0,0,1-1.75.46,10,10,0,0,1-2.06.21,7.5,7.5,0,0,1-2.17-.31,5,5,0,0,1-1.8-1,4.7,4.7,0,0,1-1.24-1.62,5.26,5.26,0,0,1-.46-2.27V163.7h-3.71v-2.78h3.71v-9.08H307v9.08h6.19v2.78H307V182a2.82,2.82,0,0,0,1,2.19,3.59,3.59,0,0,0,2.22.7,6.58,6.58,0,0,0,2.63-.49,11.54,11.54,0,0,0,1.44-.7Z" transform="translate(-6.18 -9.5)"/><path class="cls-1" d="M330.4,188.3a12.92,12.92,0,0,1-5.39-1.11,13.1,13.1,0,0,1-4.23-3,13.65,13.65,0,0,1-2.76-4.44,14.56,14.56,0,0,1-1-5.31,14.38,14.38,0,0,1,1-5.36,14,14,0,0,1,2.79-4.43,13.44,13.44,0,0,1,4.23-3,13.12,13.12,0,0,1,10.67,0,13.45,13.45,0,0,1,4.23,3,14,14,0,0,1,2.79,4.43,14.67,14.67,0,0,1,0,10.67,14,14,0,0,1-2.79,4.44,13.11,13.11,0,0,1-4.23,3A12.8,12.8,0,0,1,330.4,188.3Zm-9.75-13.82a11.56,11.56,0,0,0,.75,4.2,11,11,0,0,0,2.06,3.4,9.43,9.43,0,0,0,3.09,2.29,8.9,8.9,0,0,0,3.79.83,8.67,8.67,0,0,0,3.79-.85,10,10,0,0,0,3.12-2.32,11.05,11.05,0,0,0,2.11-3.43,11.88,11.88,0,0,0,0-8.43,11,11,0,0,0-2.11-3.46,10.19,10.19,0,0,0-3.09-2.32,8.51,8.51,0,0,0-3.76-.85,8.67,8.67,0,0,0-3.79.85,9.6,9.6,0,0,0-3.09,2.35A11.69,11.69,0,0,0,320.66,174.48Z" transform="translate(-6.18 -9.5)"/><path class="cls-1" d="M373.56,188.14a11.1,11.1,0,0,1-5.08-1.16,13.13,13.13,0,0,1-4-3.07,14,14,0,0,1-2.6-4.38,14.42,14.42,0,0,1-.93-5.11,15.9,15.9,0,0,1,.9-5.34,13.73,13.73,0,0,1,2.55-4.46,12.47,12.47,0,0,1,3.95-3,11.31,11.31,0,0,1,5.08-1.13,10.34,10.34,0,0,1,6,1.73,16.61,16.61,0,0,1,4.33,4.36v-5.62h3.15v27a11,11,0,0,1-1.06,4.92,10.59,10.59,0,0,1-2.84,3.58,12,12,0,0,1-4.2,2.17,17.79,17.79,0,0,1-5.11.72,14.67,14.67,0,0,1-7.43-1.65,13.19,13.19,0,0,1-4.59-4.43l2.17-1.7a9.66,9.66,0,0,0,4.23,3.79,13.28,13.28,0,0,0,5.62,1.21,12.78,12.78,0,0,0,3.74-.54,9.13,9.13,0,0,0,3.09-1.6,7.55,7.55,0,0,0,2.09-2.68,8.73,8.73,0,0,0,.77-3.79v-5.31a11.64,11.64,0,0,1-4.25,4.07A11.23,11.23,0,0,1,373.56,188.14Zm1-2.94a8.5,8.5,0,0,0,3-.57,10.17,10.17,0,0,0,2.71-1.52,10,10,0,0,0,2-2.14,6.62,6.62,0,0,0,1.08-2.42v-8.3a10.09,10.09,0,0,0-1.57-2.68,11.36,11.36,0,0,0-2.24-2.11,11.21,11.21,0,0,0-2.66-1.39,8.63,8.63,0,0,0-6.88.44,9.76,9.76,0,0,0-3,2.5,11.12,11.12,0,0,0-1.88,3.51,12.61,12.61,0,0,0-.64,4,11.26,11.26,0,0,0,2.89,7.55,9.86,9.86,0,0,0,3.17,2.32A9.24,9.24,0,0,0,374.54,185.2Z" transform="translate(-6.18 -9.5)"/><path class="cls-1" d="M405.17,188.3a13,13,0,0,1-9.69-4.15,14.12,14.12,0,0,1-2.81-4.46,14.52,14.52,0,0,1-1-5.42,14.18,14.18,0,0,1,1-5.34,13.5,13.5,0,0,1,7.06-7.37,13.1,13.1,0,0,1,15,3,14.16,14.16,0,0,1,3.71,9.64q0,0.41,0,.83a2.7,2.7,0,0,1-.08.57H395.38a11.35,11.35,0,0,0,3.17,7.17,9.5,9.5,0,0,0,3,2.09,9.19,9.19,0,0,0,3.69.75,9.72,9.72,0,0,0,2.63-.36,10.38,10.38,0,0,0,2.37-1,8.3,8.3,0,0,0,1.93-1.52,6.77,6.77,0,0,0,1.32-2l3,0.82a8.92,8.92,0,0,1-1.75,2.71,12.28,12.28,0,0,1-2.63,2.11,12.89,12.89,0,0,1-3.3,1.39A14.09,14.09,0,0,1,405.17,188.3Zm9.9-15.37a10.85,10.85,0,0,0-1-3.94,10.73,10.73,0,0,0-2.17-3.07,9.52,9.52,0,0,0-3.07-2,9.91,9.91,0,0,0-7.42,0,9.51,9.51,0,0,0-3.07,2,9.87,9.87,0,0,0-2.11,3.09,11.67,11.67,0,0,0-1,3.92h19.8Z" transform="translate(-6.18 -9.5)"/><path class="cls-1" d="M436.42,186.49l-0.9.41q-0.59.26-1.37,0.52a15.85,15.85,0,0,1-1.75.46,10,10,0,0,1-2.06.21,7.5,7.5,0,0,1-2.17-.31,5,5,0,0,1-1.8-1,4.7,4.7,0,0,1-1.24-1.62,5.26,5.26,0,0,1-.46-2.27V163.7H421v-2.78h3.71v-9.08h3.51v9.08h6.19v2.78h-6.19V182a2.82,2.82,0,0,0,1,2.19,3.59,3.59,0,0,0,2.22.7,6.58,6.58,0,0,0,2.63-.49,11.54,11.54,0,0,0,1.44-.7Z" transform="translate(-6.18 -9.5)"/><path class="cls-1" d="M466.74,186.49l-0.9.41q-0.59.26-1.37,0.52a15.85,15.85,0,0,1-1.75.46,10,10,0,0,1-2.06.21,7.5,7.5,0,0,1-2.17-.31,5,5,0,0,1-1.8-1,4.7,4.7,0,0,1-1.24-1.62,5.26,5.26,0,0,1-.46-2.27V163.7h-3.71v-2.78H455v-9.08h3.51v9.08h6.19v2.78h-6.19V182a2.82,2.82,0,0,0,1,2.19,3.59,3.59,0,0,0,2.22.7,6.58,6.58,0,0,0,2.63-.49,11.54,11.54,0,0,0,1.44-.7Z" transform="translate(-6.18 -9.5)"/><path class="cls-1" d="M493.45,187.78h-3.51v-15q0-4.59-1.57-6.86a5.26,5.26,0,0,0-4.62-2.27,7.88,7.88,0,0,0-3,.59,11,11,0,0,0-2.76,1.63,11.12,11.12,0,0,0-2.24,2.42,10.22,10.22,0,0,0-1.42,3v16.45h-3.51V150.14h3.51V167a12.55,12.55,0,0,1,4.49-4.8,11.37,11.37,0,0,1,6.08-1.75,8.41,8.41,0,0,1,3.94.85,7,7,0,0,1,2.63,2.37,10.67,10.67,0,0,1,1.47,3.66,22.28,22.28,0,0,1,.46,4.72v15.73Z" transform="translate(-6.18 -9.5)"/><path class="cls-1" d="M511.45,188.3a13,13,0,0,1-9.69-4.15,14.12,14.12,0,0,1-2.81-4.46,14.52,14.52,0,0,1-1-5.42,14.18,14.18,0,0,1,1-5.34,13.5,13.5,0,0,1,7.06-7.37,13.1,13.1,0,0,1,15,3,14.16,14.16,0,0,1,3.71,9.64q0,0.41,0,.83a2.7,2.7,0,0,1-.08.57H501.65a11.35,11.35,0,0,0,3.17,7.17,9.5,9.5,0,0,0,3,2.09,9.19,9.19,0,0,0,3.69.75,9.72,9.72,0,0,0,2.63-.36,10.38,10.38,0,0,0,2.37-1,8.3,8.3,0,0,0,1.93-1.52,6.77,6.77,0,0,0,1.32-2l3,0.82a8.92,8.92,0,0,1-1.75,2.71,12.28,12.28,0,0,1-2.63,2.11,12.89,12.89,0,0,1-3.3,1.39A14.09,14.09,0,0,1,511.45,188.3Zm9.9-15.37a10.85,10.85,0,0,0-1-3.94,10.73,10.73,0,0,0-2.17-3.07,9.52,9.52,0,0,0-3.07-2,9.91,9.91,0,0,0-7.42,0,9.51,9.51,0,0,0-3.07,2A9.87,9.87,0,0,0,502.5,169a11.67,11.67,0,0,0-1,3.92h19.8Z" transform="translate(-6.18 -9.5)"/><path class="cls-1" d="M530,155.29v-5.16h3.51v5.16H530Zm0,32.49V160.92h3.51v26.87H530Z" transform="translate(-6.18 -9.5)"/><path class="cls-1" d="M554.41,164a11,11,0,0,0-6.19,2,9.88,9.88,0,0,0-3.71,5.11v16.71H541V160.92h3.3v6.45a14.13,14.13,0,0,1,3.66-4.72,7.53,7.53,0,0,1,4.9-1.88h0.88a3.55,3.55,0,0,1,.67.05V164Z" transform="translate(-6.18 -9.5)"/><path class="cls-1" d="M8.64,257V213.77H24.79a23.9,23.9,0,0,1,9.39,1.71A18.88,18.88,0,0,1,45,227a25.26,25.26,0,0,1,1.37,8.38,24.89,24.89,0,0,1-1.52,8.93,19.19,19.19,0,0,1-4.36,6.83,19.55,19.55,0,0,1-6.83,4.39A24.26,24.26,0,0,1,24.79,257H8.64Zm27.55-21.7a16.81,16.81,0,0,0-.76-5.21,11.71,11.71,0,0,0-2.22-4.05,9.69,9.69,0,0,0-3.6-2.62,12.12,12.12,0,0,0-4.81-.91H18.64v25.72h6.16a11.6,11.6,0,0,0,4.88-1,9.86,9.86,0,0,0,3.57-2.71,12.34,12.34,0,0,0,2.19-4.08A16.6,16.6,0,0,0,36.19,235.34Z" transform="translate(-6.18 -9.5)"/><path class="cls-1" d="M81.53,248.27V257H51.12V213.77H81v8.78H61.12V231H78.18v8.11H61.12v9.2H81.53Z" transform="translate(-6.18 -9.5)"/><path class="cls-1" d="M97.74,232.3V257h-10V213.77h7.8l20.17,25.41V213.77h10V257h-8Z" transform="translate(-6.18 -9.5)"/><path class="cls-1" d="M167,222.55H153.81V257h-10V222.55H130.59v-8.78H167v8.78Z" transform="translate(-6.18 -9.5)"/><path class="cls-1" d="M160,257l16.64-43.27h8.11L201.28,257h-10.6l-3.35-9.69H173.86L170.57,257H160Zm20.66-32.67-5.18,16.09h10.18Z" transform="translate(-6.18 -9.5)"/><path class="cls-1" d="M205.24,257V213.77h10v34.49h21V257h-31Z" transform="translate(-6.18 -9.5)"/><path class="cls-1" d="M253.63,257V213.77h10V257h-10Z" transform="translate(-6.18 -9.5)"/><path class="cls-1" d="M304.82,257v-25.9L295.44,250h-5.36l-9.39-18.83V257h-10V213.77h10.85l11.21,22.61L304,213.77h10.79V257h-10Z" transform="translate(-6.18 -9.5)"/><path class="cls-1" d="M321.89,257V213.77h18.47a12.7,12.7,0,0,1,5.7,1.28,14.62,14.62,0,0,1,4.45,3.35,16,16,0,0,1,2.93,4.69,14,14,0,0,1,1.07,5.3,15.17,15.17,0,0,1-1,5.49,15.65,15.65,0,0,1-2.8,4.69,13.2,13.2,0,0,1-4.36,3.29,13,13,0,0,1-5.67,1.22h-8.78v14h-10Zm10-22.67H340a3.87,3.87,0,0,0,3-1.52,6.75,6.75,0,0,0,1.28-4.45,7.75,7.75,0,0,0-.4-2.62,5.38,5.38,0,0,0-1.07-1.83,4.1,4.1,0,0,0-1.52-1.07,4.66,4.66,0,0,0-1.71-.33h-7.8v11.82Z" transform="translate(-6.18 -9.5)"/><path class="cls-1" d="M358.45,257V213.77h10v34.49h21V257h-31Z" transform="translate(-6.18 -9.5)"/><path class="cls-1" d="M392.52,257l16.64-43.27h8.11L433.84,257h-10.6l-3.35-9.69H406.42L403.12,257h-10.6Zm20.66-32.67L408,240.46h10.18Z" transform="translate(-6.18 -9.5)"/><path class="cls-1" d="M447.79,232.3V257h-10V213.77h7.8l20.17,25.41V213.77h10V257h-8Z" transform="translate(-6.18 -9.5)"/><path class="cls-1" d="M515.81,222.55H502.64V257h-10V222.55H479.42v-8.78h36.38v8.78Z" transform="translate(-6.18 -9.5)"/><path class="cls-1" d="M545.12,226.45a9.52,9.52,0,0,0-1.34-.91,24.23,24.23,0,0,0-2.74-1.4,26.71,26.71,0,0,0-3.6-1.28,14.37,14.37,0,0,0-3.9-.55,7.07,7.07,0,0,0-3.93.91,3,3,0,0,0-1.37,2.68,2.76,2.76,0,0,0,.61,1.83,5.45,5.45,0,0,0,1.74,1.31,15.88,15.88,0,0,0,2.8,1.07l3.87,1.1a52.09,52.09,0,0,1,5.61,1.86,15.58,15.58,0,0,1,4.27,2.5,10,10,0,0,1,2.71,3.63,12.59,12.59,0,0,1,.95,5.12,12.83,12.83,0,0,1-1.37,6.19,11.56,11.56,0,0,1-3.63,4.08,15.32,15.32,0,0,1-5.21,2.25,26.28,26.28,0,0,1-6.06.7,33.12,33.12,0,0,1-4.84-.37,35.6,35.6,0,0,1-4.84-1.07,40.36,40.36,0,0,1-4.63-1.68,25.15,25.15,0,0,1-4.14-2.25l4.39-8.72a12.31,12.31,0,0,0,1.65,1.16,24.26,24.26,0,0,0,3.29,1.71,32.34,32.34,0,0,0,4.39,1.52,18.51,18.51,0,0,0,4.94.67q5.3,0,5.3-3.23a2.73,2.73,0,0,0-.79-2,7.49,7.49,0,0,0-2.19-1.43,24.28,24.28,0,0,0-3.29-1.19l-4.14-1.22a36,36,0,0,1-5.18-2,14.15,14.15,0,0,1-3.66-2.47,8.78,8.78,0,0,1-2.16-3.23,11.88,11.88,0,0,1-.7-4.27,13.58,13.58,0,0,1,1.28-6,13,13,0,0,1,3.47-4.42,15.15,15.15,0,0,1,5.09-2.71,20.22,20.22,0,0,1,6.13-.91,23.68,23.68,0,0,1,4.51.43,32.4,32.4,0,0,1,4.17,1.1,33.07,33.07,0,0,1,3.75,1.52q1.77,0.85,3.17,1.71Z" transform="translate(-6.18 -9.5)"/></svg>